<svg width="32" height="32" viewBox="0 0 32 32" fill="none" xmlns="http://www.w3.org/2000/svg">
<rect width="32" height="32" rx="16" fill="white"/>
<path d="M14.6528 18.2712V24.078C14.6528 25.1395 13.8351 26 12.8264 26C11.8177 26 11 25.1395 11 24.078V20.3468C11 19.2005 11.8831 18.2712 12.9724 18.2712H14.6528ZM14.6528 18.2712V14.4068M14.6528 18.2712H18.3305C19.3446 18.2712 20.1667 17.4061 20.1667 16.339C20.1667 15.2719 19.3446 14.4068 18.3305 14.4068H14.6528M14.6528 14.4068V10.8644M14.6528 14.4068H12.6831C11.7536 14.4068 11 13.6138 11 12.6356C11 11.6574 11.7536 10.8644 12.6831 10.8644H14.6528M14.6528 10.8644V9.07563C14.6528 7.92929 15.5359 7 16.6252 7H20.1639C21.1779 7 22 7.86508 22 8.9322C22 9.99933 21.1779 10.8644 20.1639 10.8644H14.6528Z" stroke="black" stroke-width="2"/>
</svg>
