<svg width="32" height="22" viewBox="0 0 32 22" fill="none" xmlns="http://www.w3.org/2000/svg">
<path d="M16 17.6C17.8182 17.6 19.3636 16.9583 20.6364 15.675C21.9091 14.3917 22.5455 12.8333 22.5455 11C22.5455 9.16667 21.9091 7.60833 20.6364 6.325C19.3636 5.04167 17.8182 4.4 16 4.4C14.1818 4.4 12.6364 5.04167 11.3636 6.325C10.0909 7.60833 9.45455 9.16667 9.45455 11C9.45455 12.8333 10.0909 14.3917 11.3636 15.675C12.6364 16.9583 14.1818 17.6 16 17.6ZM16 14.96C14.9091 14.96 13.9818 14.575 13.2182 13.805C12.4545 13.035 12.0727 12.1 12.0727 11C12.0727 9.9 12.4545 8.965 13.2182 8.195C13.9818 7.425 14.9091 7.04 16 7.04C17.0909 7.04 18.0182 7.425 18.7818 8.195C19.5455 8.965 19.9273 9.9 19.9273 11C19.9273 12.1 19.5455 13.035 18.7818 13.805C18.0182 14.575 17.0909 14.96 16 14.96ZM16 22C12.4606 22 9.23636 21.0039 6.32727 19.0117C3.41818 17.0194 1.30909 14.3489 0 11C1.30909 7.65111 3.41818 4.98056 6.32727 2.98833C9.23636 0.996111 12.4606 0 16 0C19.5394 0 22.7636 0.996111 25.6727 2.98833C28.5818 4.98056 30.6909 7.65111 32 11C30.6909 14.3489 28.5818 17.0194 25.6727 19.0117C22.7636 21.0039 19.5394 22 16 22ZM16 19.0667C18.7394 19.0667 21.2545 18.3394 23.5455 16.885C25.8364 15.4306 27.5879 13.4689 28.8 11C27.5879 8.53111 25.8364 6.56944 23.5455 5.115C21.2545 3.66056 18.7394 2.93333 16 2.93333C13.2606 2.93333 10.7455 3.66056 8.45455 5.115C6.16364 6.56944 4.41212 8.53111 3.2 11C4.41212 13.4689 6.16364 15.4306 8.45455 16.885C10.7455 18.3394 13.2606 19.0667 16 19.0667Z" fill="#0F0F0F"/>
</svg>
