<svg width="21" height="21" viewBox="0 0 21 21" fill="none" xmlns="http://www.w3.org/2000/svg">
<path d="M3.77119 8.36583L5.81391 9.22903C6.05834 8.74075 6.3115 8.26991 6.57339 7.81651C6.83527 7.36311 7.12335 6.90971 7.43761 6.45631L5.97104 6.16858L3.77119 8.36583ZM7.48999 10.5369L10.4755 13.4927C11.2088 13.2137 11.9945 12.7865 12.8325 12.211C13.6705 11.6355 14.4562 10.9816 15.1895 10.2492C16.4116 9.02849 17.3675 7.67265 18.0572 6.18166C18.7468 4.69067 19.048 3.31739 18.9607 2.06182C17.7036 1.97463 16.3243 2.27544 14.8229 2.96426C13.3214 3.65308 11.9595 4.60784 10.7374 5.82853C10.0041 6.56094 9.3494 7.34568 8.77324 8.18272C8.19709 9.01977 7.76934 9.8045 7.48999 10.5369ZM12.1516 8.83667C11.75 8.43558 11.5493 7.94294 11.5493 7.35875C11.5493 6.77457 11.75 6.28193 12.1516 5.88084C12.5532 5.47976 13.0507 5.27922 13.6444 5.27922C14.238 5.27922 14.7356 5.47976 15.1371 5.88084C15.5387 6.28193 15.7395 6.77457 15.7395 7.35875C15.7395 7.94294 15.5387 8.43558 15.1371 8.83667C14.7356 9.23775 14.238 9.43829 13.6444 9.43829C13.0507 9.43829 12.5532 9.23775 12.1516 8.83667ZM12.6492 17.2333L14.849 15.036L14.561 13.5712C14.107 13.8851 13.6531 14.1685 13.1991 14.4213C12.7452 14.6742 12.2738 14.9227 11.785 15.1668L12.6492 17.2333ZM20.8463 0.152305C21.178 2.26236 20.9729 4.31574 20.2308 6.31245C19.4888 8.30915 18.2099 10.2143 16.3942 12.0279L16.918 14.6175C16.9878 14.9663 16.9703 15.3063 16.8656 15.6377C16.7608 15.969 16.5862 16.2567 16.3418 16.5009L11.9421 20.8954L9.74223 15.7423L5.26395 11.2693L0.104755 9.07208L4.47828 4.67759C4.72271 4.43345 5.01515 4.25907 5.35561 4.15444C5.69606 4.0498 6.04088 4.03237 6.39006 4.10212L8.98275 4.62527C10.7985 2.81167 12.7016 1.52994 14.6919 0.78009C16.6823 0.0302361 18.7337 -0.179026 20.8463 0.152305ZM1.96416 14.5914C2.57523 13.981 3.32161 13.6715 4.2033 13.6628C5.08499 13.654 5.83137 13.9549 6.44244 14.5652C7.05351 15.1756 7.35468 15.921 7.34595 16.8017C7.33722 17.6823 7.02732 18.4278 6.41625 19.0382C5.97977 19.4741 5.25085 19.8491 4.22949 20.163C3.20813 20.4768 1.7983 20.7559 0 21C0.244429 19.2038 0.523776 17.7957 0.838041 16.7755C1.15231 15.7554 1.52768 15.0273 1.96416 14.5914ZM3.45692 16.0562C3.28233 16.2306 3.10774 16.5488 2.93314 17.011C2.75855 17.4731 2.63634 17.9395 2.5665 18.4104C3.0379 18.3406 3.50493 18.2229 3.9676 18.0573C4.43027 17.8916 4.7489 17.7216 4.92349 17.5472C5.133 17.3379 5.24649 17.0851 5.26395 16.7886C5.2814 16.4922 5.18538 16.2393 4.97587 16.03C4.76636 15.8208 4.5132 15.7205 4.21639 15.7292C3.91959 15.7379 3.66643 15.8469 3.45692 16.0562Z" fill="#F5F5F5"/>
</svg>
