<svg width="128" height="128" viewBox="0 0 128 128" fill="none" xmlns="http://www.w3.org/2000/svg">
<path d="M77.7817 21.2134L7.07107 91.924C3.16583 95.8293 3.16583 102.161 7.07107 106.066C10.9763 109.971 17.308 109.971 21.2132 106.066L91.9239 35.3555C95.8291 31.4503 95.8291 25.1186 91.9239 21.2134C88.0186 17.3081 81.687 17.3081 77.7817 21.2134Z" fill="#934543"/>
<path d="M106.066 21.2134L35.3553 91.924C31.45 95.8293 31.45 102.161 35.3553 106.066C39.2605 109.971 45.5922 109.971 49.4974 106.066L120.208 35.3555C124.113 31.4503 124.113 25.1186 120.208 21.2134C116.303 17.3081 109.971 17.3081 106.066 21.2134Z" fill="#662626"/>
</svg>
